<svg width="128" height="128" viewBox="0 0 128 128" fill="none" xmlns="http://www.w3.org/2000/svg">
<path d="M62.4256 125.252C59.6148 125.241 57.226 124.14 55.2592 121.949C53.2924 119.758 52.3143 117.11 52.3249 114.006L52.4139 87.8449C52.4182 86.6005 52.0598 85.5767 51.339 84.7735C50.6181 83.9704 49.6951 83.5666 48.5699 83.5622L24.9169 83.4693C22.1145 83.4583 19.7278 82.3571 17.7568 80.1658C15.79 77.9745 14.8119 75.3268 14.8225 72.2227L15.0296 11.3658C15.0402 8.26625 16.0363 5.62628 18.0179 3.44587C19.9996 1.27009 22.3958 0.187713 25.2066 0.198752L80.2235 0.414808C83.0258 0.425813 85.4125 1.52697 87.3835 3.71828C89.3503 5.90957 90.3284 8.5596 90.3178 11.6684L90.2288 37.8223C90.2246 39.0667 90.5829 40.0905 91.3038 40.8936C92.0247 41.6968 92.9498 42.1006 94.0791 42.1051L117.726 42.1979C120.528 42.2089 122.915 43.3101 124.886 45.5014C126.853 47.6927 127.831 50.3427 127.82 53.4515L127.613 114.301C127.603 117.401 126.606 120.041 124.625 122.221C122.643 124.397 120.249 125.479 117.442 125.468L62.4256 125.252ZM62.4492 118.313L117.466 118.529C118.591 118.534 119.517 118.137 120.243 117.34C120.97 116.542 121.335 115.521 121.339 114.277L121.546 53.4199C121.55 52.1755 121.192 51.1517 120.471 50.3485C119.75 49.5453 118.827 49.1415 117.702 49.1371L94.0492 49.0442C91.2468 49.0332 88.8601 47.9321 86.8891 45.7408C84.9223 43.5495 83.9442 40.9018 83.9548 37.7976L84.0438 11.6368C84.0481 10.3924 83.6897 9.36856 82.9689 8.56539C82.248 7.76223 81.325 7.35844 80.1998 7.35402L25.1767 7.13794C24.0515 7.13352 23.1258 7.53005 22.3995 8.32753C21.6731 9.12501 21.3079 10.1483 21.3036 11.3973L21.0965 72.2473C21.0923 73.4917 21.4506 74.5155 22.1715 75.3187C22.8923 76.1218 23.8174 76.5257 24.9468 76.5301L48.5936 76.6229C51.396 76.634 53.7826 77.7351 55.7536 79.9264C57.7204 82.1177 58.6985 84.7677 58.6879 87.8765L58.5989 114.03C58.5947 115.275 58.953 116.299 59.6739 117.102C60.3948 117.905 61.3199 118.309 62.4492 118.313Z" fill="url(#paint0_linear_94_5715)"/>
<path d="M62.4256 125.252C59.6148 125.241 57.226 124.14 55.2592 121.949C53.2924 119.758 52.3143 117.11 52.3249 114.006L52.4139 87.8449C52.4182 86.6005 52.0598 85.5767 51.339 84.7735C50.6181 83.9704 49.6951 83.5666 48.5699 83.5622L24.9169 83.4693C22.1145 83.4583 19.7278 82.3571 17.7568 80.1658C15.79 77.9745 14.8119 75.3268 14.8225 72.2227L15.0296 11.3658C15.0402 8.26625 16.0363 5.62628 18.0179 3.44587C19.9996 1.27009 22.3958 0.187713 25.2066 0.198752L80.2235 0.414808C83.0258 0.425813 85.4125 1.52697 87.3835 3.71828C89.3503 5.90957 90.3284 8.5596 90.3178 11.6684L90.2288 37.8223C90.2246 39.0667 90.5829 40.0905 91.3038 40.8936C92.0247 41.6968 92.9498 42.1006 94.0791 42.1051L117.726 42.1979C120.528 42.2089 122.915 43.3101 124.886 45.5014C126.853 47.6927 127.831 50.3427 127.82 53.4515L127.613 114.301C127.603 117.401 126.606 120.041 124.625 122.221C122.643 124.397 120.249 125.479 117.442 125.468L62.4256 125.252ZM62.4492 118.313L117.466 118.529C118.591 118.534 119.517 118.137 120.243 117.34C120.97 116.542 121.335 115.521 121.339 114.277L121.546 53.4199C121.55 52.1755 121.192 51.1517 120.471 50.3485C119.75 49.5453 118.827 49.1415 117.702 49.1371L94.0492 49.0442C91.2468 49.0332 88.8601 47.9321 86.8891 45.7408C84.9223 43.5495 83.9442 40.9018 83.9548 37.7976L84.0438 11.6368C84.0481 10.3924 83.6897 9.36856 82.9689 8.56539C82.248 7.76223 81.325 7.35844 80.1998 7.35402L25.1767 7.13794C24.0515 7.13352 23.1258 7.53005 22.3995 8.32753C21.6731 9.12501 21.3079 10.1483 21.3036 11.3973L21.0965 72.2473C21.0923 73.4917 21.4506 74.5155 22.1715 75.3187C22.8923 76.1218 23.8174 76.5257 24.9468 76.5301L48.5936 76.6229C51.396 76.634 53.7826 77.7351 55.7536 79.9264C57.7204 82.1177 58.6985 84.7677 58.6879 87.8765L58.5989 114.03C58.5947 115.275 58.953 116.299 59.6739 117.102C60.3948 117.905 61.3199 118.309 62.4492 118.313Z" fill="url(#paint1_linear_94_5715)"/>
<path d="M57.2777 125.158C54.4669 125.147 52.0781 124.048 50.1113 121.862C48.1444 119.677 47.1662 117.036 47.1767 113.939L47.265 87.845C47.2692 86.6037 46.9109 85.5825 46.19 84.7813C45.4691 83.9802 44.5461 83.5774 43.4209 83.5729L19.7679 83.4795C16.9655 83.4685 14.5788 82.37 12.6077 80.1842C10.6409 77.9985 9.66269 75.3574 9.67317 72.2612L9.87866 11.5589C9.88913 8.46721 10.8852 5.83399 12.8668 3.65917C14.8484 1.48898 17.2446 0.409426 20.0553 0.420524L75.0722 0.637746C77.8746 0.648811 80.2613 1.74724 82.2323 3.93305C84.1992 6.11884 85.1774 8.76217 85.1669 11.863L85.0786 37.9505C85.0744 39.1918 85.4327 40.213 86.1536 41.0141C86.8745 41.8153 87.7996 42.2181 88.929 42.2225L112.576 42.3159C115.378 42.327 117.765 43.4254 119.736 45.6112C121.703 47.797 122.681 50.4403 122.67 53.5412L122.465 114.237C122.454 117.328 121.458 119.961 119.477 122.136C117.495 124.306 115.101 125.386 112.295 125.375L57.2777 125.158ZM57.3011 118.236L112.318 118.453C113.443 118.458 114.369 118.062 115.095 117.267C115.821 116.471 116.187 115.453 116.191 114.212L116.396 53.5095C116.401 52.2682 116.042 51.247 115.321 50.4459C114.6 49.6447 113.677 49.2419 112.552 49.2375L88.8993 49.1441C86.0969 49.133 83.7101 48.0346 81.7391 45.8488C79.7723 43.663 78.7941 41.022 78.8045 37.9257L78.8929 11.8313C78.8971 10.5901 78.5387 9.56886 77.8178 8.76772C77.0969 7.96657 76.1739 7.56378 75.0488 7.55933L20.0256 7.34209C18.9005 7.33764 17.9747 7.73314 17.2484 8.52857C16.5221 9.324 16.1569 10.3447 16.1527 11.5906L15.9472 72.286C15.943 73.5272 16.3013 74.5484 17.0222 75.3496C17.7431 76.1507 18.6683 76.5535 19.7976 76.558L43.4444 76.6514C46.2468 76.6624 48.6335 77.7609 50.6045 79.9467C52.5714 82.1324 53.5495 84.7758 53.539 87.8766L53.4507 113.964C53.4465 115.205 53.8049 116.227 54.5258 117.028C55.2467 117.829 56.1718 118.232 57.3011 118.236Z" fill="url(#paint2_linear_94_5715)"/>
<path d="M52.504 125.074C49.6932 125.063 47.3046 123.962 45.3382 121.772C43.3718 119.581 42.3942 116.934 42.4053 113.83L42.499 87.6712C42.5035 86.4269 42.1454 85.4033 41.4246 84.6003C40.7039 83.7974 39.781 83.3938 38.6558 83.3896L15.0027 83.3014C12.2003 83.2909 9.81384 82.1903 7.84325 79.9996C5.87685 77.8089 4.89921 75.1616 4.91034 72.0577L5.12842 11.2059C5.13953 8.10663 6.13611 5.4667 8.11818 3.28608C10.1002 1.11008 12.4966 0.0273303 15.3074 0.0378131L70.3243 0.243001C73.1267 0.253452 75.5132 1.35404 77.4838 3.54478C79.4502 5.7355 80.4278 8.38511 80.4167 11.4936L80.323 37.6453C80.3185 38.8897 80.6767 39.9133 81.3974 40.7162C82.1181 41.5192 83.0432 41.9228 84.1725 41.927L107.819 42.0152C110.622 42.0256 113.008 43.1262 114.979 45.317C116.945 47.5077 117.923 50.1573 117.912 53.2658L117.694 114.111C117.682 117.21 116.686 119.85 114.704 122.03C112.722 124.206 110.327 125.289 107.521 125.279L52.504 125.074ZM52.5288 118.135L107.546 118.34C108.671 118.344 109.597 117.948 110.323 117.15C111.05 116.353 111.415 115.332 111.42 114.087L111.638 53.2355C111.642 51.9911 111.284 50.9675 110.563 50.1645C109.842 49.3616 108.92 48.958 107.794 48.9538L84.1413 48.8656C81.339 48.8551 78.9525 47.7546 76.9819 45.5638C75.0155 43.3731 74.0378 40.7258 74.049 37.6219L74.1427 11.4633C74.1472 10.219 73.789 9.19531 73.0683 8.39236C72.3475 7.5894 71.4246 7.18583 70.2995 7.18163L15.2763 6.97642C14.1511 6.97222 13.2253 7.3689 12.4988 8.16646C11.7724 8.96402 11.4069 9.98728 11.4024 11.2362L11.1844 72.0811C11.1799 73.3254 11.538 74.3491 12.2588 75.152C12.9795 75.955 13.9045 76.3585 15.0339 76.3628L38.6807 76.451C41.4831 76.4614 43.8696 77.562 45.8401 79.7527C47.8065 81.9435 48.7842 84.5931 48.773 87.7016L48.6793 113.853C48.6749 115.098 49.033 116.121 49.7537 116.924C50.4745 117.727 51.3995 118.131 52.5288 118.135Z" fill="url(#paint3_linear_94_5715)"/>
<path d="M47.7831 124.647C44.9723 124.636 42.5835 123.541 40.6166 121.363C38.6498 119.184 37.6716 116.551 37.682 113.464L37.7702 87.4525C37.7744 86.2152 37.4161 85.1972 36.6951 84.3986C35.9742 83.6 35.0512 83.1984 33.9261 83.194L10.273 83.1007C7.47063 83.0897 5.0839 81.9947 3.11286 79.8158C1.14599 77.6369 0.16779 75.0042 0.178252 71.9177L0.38337 11.4072C0.393817 8.32533 1.38984 5.70043 3.37144 3.5325C5.35302 1.36918 7.7492 0.293055 10.56 0.304138L65.5768 0.521069C68.3792 0.532119 70.766 1.6271 72.737 3.80601C74.7039 5.98491 75.6821 8.61989 75.6716 11.711L75.5834 37.716C75.5792 38.9533 75.9376 39.9713 76.6585 40.77C77.3794 41.5686 78.3045 41.9701 79.4338 41.9746L103.081 42.0678C105.883 42.0789 108.27 43.1738 110.241 45.3527C112.208 47.5316 113.186 50.1666 113.175 53.2577L112.97 113.761C112.96 116.843 111.964 119.468 109.982 121.636C108.001 123.799 105.607 124.875 102.8 124.864L47.7831 124.647ZM47.8065 117.748L102.823 117.965C103.948 117.969 104.874 117.575 105.601 116.782C106.327 115.989 106.692 114.974 106.696 113.737L106.901 53.2261C106.906 51.9887 106.547 50.9707 105.826 50.1721C105.105 49.3735 104.182 48.972 103.057 48.9675L79.4042 48.8743C76.6018 48.8632 74.2151 47.7682 72.244 45.5893C70.2772 43.4104 69.299 40.7777 69.3094 37.6913L69.3976 11.6793C69.4018 10.442 69.0434 9.42399 68.3225 8.62537C67.6016 7.82675 66.6786 7.42522 65.5535 7.42079L10.5303 7.20383C9.40515 7.19939 8.47943 7.59363 7.75313 8.38655C7.02683 9.17946 6.66158 10.1969 6.65737 11.4388L6.45227 71.9425C6.44808 73.1798 6.80643 74.1978 7.52734 74.9964C8.24825 75.795 9.17336 76.1966 10.3027 76.201L33.9495 76.2943C36.7519 76.3053 39.1386 77.4003 41.1096 79.5792C43.0765 81.7581 44.0547 84.3931 44.0442 87.4842L43.9561 113.489C43.9519 114.727 44.3102 115.745 45.0311 116.543C45.752 117.342 46.6771 117.743 47.8065 117.748Z" fill="url(#paint4_linear_94_5715)"/>
<defs>
<linearGradient id="paint0_linear_94_5715" x1="71.5339" y1="0.380683" x2="71.0434" y2="125.286" gradientUnits="userSpaceOnUse">
<stop stop-color="#F63727" stop-opacity="0.98"/>
<stop offset="0.283654" stop-color="#FBBC05"/>
<stop offset="0.442308" stop-color="#DEDE4C" stop-opacity="0.990959"/>
<stop offset="0.528846" stop-color="#A7D2B5" stop-opacity="0.986027"/>
<stop offset="0.634615" stop-color="#3380FF" stop-opacity="0.98"/>
<stop offset="0.798077" stop-color="#19BEF1" stop-opacity="0.98"/>
<stop offset="1" stop-color="#0FF44C" stop-opacity="0.98"/>
</linearGradient>
<linearGradient id="paint1_linear_94_5715" x1="71.5339" y1="0.380683" x2="71.0434" y2="125.286" gradientUnits="userSpaceOnUse">
<stop stop-color="#F63727" stop-opacity="0.98"/>
<stop offset="0.283654" stop-color="#FBBC05"/>
<stop offset="0.442308" stop-color="#DEDE4C" stop-opacity="0.990959"/>
<stop offset="0.528846" stop-color="#A7D2B5" stop-opacity="0.986027"/>
<stop offset="0.634615" stop-color="#3380FF" stop-opacity="0.98"/>
<stop offset="0.798077" stop-color="#19BEF1" stop-opacity="0.98"/>
<stop offset="1" stop-color="#0FF44C" stop-opacity="0.98"/>
</linearGradient>
<linearGradient id="paint2_linear_94_5715" x1="66.3827" y1="0.603438" x2="65.8908" y2="125.192" gradientUnits="userSpaceOnUse">
<stop stop-color="#F63727" stop-opacity="0.98"/>
<stop offset="0.283654" stop-color="#FBBC05"/>
<stop offset="0.442308" stop-color="#DEDE4C" stop-opacity="0.990959"/>
<stop offset="0.528846" stop-color="#A7D2B5" stop-opacity="0.986027"/>
<stop offset="0.634615" stop-color="#3380FF" stop-opacity="0.98"/>
<stop offset="0.798077" stop-color="#19BEF1" stop-opacity="0.98"/>
<stop offset="1" stop-color="#0FF44C" stop-opacity="0.98"/>
</linearGradient>
<linearGradient id="paint3_linear_94_5715" x1="61.6348" y1="0.210593" x2="61.169" y2="125.106" gradientUnits="userSpaceOnUse">
<stop stop-color="#F63727" stop-opacity="0.98"/>
<stop offset="0.283654" stop-color="#FBBC05"/>
<stop offset="0.442308" stop-color="#DEDE4C" stop-opacity="0.990959"/>
<stop offset="0.528846" stop-color="#A7D2B5" stop-opacity="0.986027"/>
<stop offset="0.634615" stop-color="#3380FF" stop-opacity="0.98"/>
<stop offset="0.798077" stop-color="#19BEF1" stop-opacity="0.98"/>
<stop offset="1" stop-color="#0FF44C" stop-opacity="0.98"/>
</linearGradient>
<linearGradient id="paint4_linear_94_5715" x1="56.8873" y1="0.486806" x2="56.3976" y2="124.681" gradientUnits="userSpaceOnUse">
<stop stop-color="#F63727" stop-opacity="0.98"/>
<stop offset="0.283654" stop-color="#FBBC05"/>
<stop offset="0.442308" stop-color="#DEDE4C" stop-opacity="0.990959"/>
<stop offset="0.528846" stop-color="#A7D2B5" stop-opacity="0.986027"/>
<stop offset="0.634615" stop-color="#3380FF" stop-opacity="0.98"/>
<stop offset="0.798077" stop-color="#19BEF1" stop-opacity="0.98"/>
<stop offset="1" stop-color="#0FF44C" stop-opacity="0.98"/>
</linearGradient>
</defs>
</svg>
